<svg xmlns="http://www.w3.org/2000/svg" width="77" height="115" fill="none" viewBox="0 0 77 115"><circle cx="38.932" cy="38.394" r="38" fill="url(#paint0_linear_610_5164)"/><circle cx="38.432" cy="37.894" r="11.5" fill="url(#paint1_linear_610_5164)"/><circle cx="39.432" cy="89.894" r="2.5" fill="#606C71" transform="rotate(90 39.4321 89.894)"/><circle cx="39.432" cy="100.894" r="2.5" fill="#606C71" transform="rotate(90 39.4321 100.894)"/><circle cx="39.432" cy="111.894" r="2.5" fill="#606C71" transform="rotate(90 39.4321 111.894)"/><circle cx="10.342" cy="90.061" r="2.5" fill="#606C71" transform="rotate(100 10.3421 90.0611)"/><circle cx="8.432" cy="100.894" r="2.5" fill="#606C71" transform="rotate(100 8.43198 100.894)"/><circle cx="6.522" cy="111.727" r="2.5" fill="#606C71" transform="rotate(100 6.52183 111.727)"/><circle cx="68.522" cy="90.061" r="2.5" fill="#606C71" transform="rotate(80 68.5219 90.0612)"/><circle cx="70.432" cy="100.894" r="2.5" fill="#606C71" transform="rotate(80 70.4321 100.894)"/><circle cx="72.342" cy="111.727" r="2.5" fill="#606C71" transform="rotate(80 72.3422 111.727)"/><defs><linearGradient id="paint0_linear_610_5164" x1="75.814" x2="-15.236" y1=".394" y2="31.469" gradientUnits="userSpaceOnUse"><stop stop-color="#CD5CAE"/><stop offset="1" stop-color="#FF3685"/></linearGradient><linearGradient id="paint1_linear_610_5164" x1="49.594" x2="22.039" y1="26.394" y2="35.798" gradientUnits="userSpaceOnUse"><stop stop-color="#FDFF97"/><stop offset="1" stop-color="#F1DA09"/></linearGradient></defs></svg>