<svg xmlns="http://www.w3.org/2000/svg" xmlns:svg="http://www.w3.org/2000/svg" xmlns:xlink="http://www.w3.org/1999/xlink" id="svg1048" width="560" height="164" version="1.1"><defs id="defs974"><linearGradient id="a"><stop id="stop968" offset="0" stop-color="#fff" stop-opacity=".098"/><stop id="stop970" offset="1" stop-color="#fff" stop-opacity="0"/></linearGradient><radialGradient id="b" cx="113" cy="-12.89" r="59.662" fx="113" fy="-12.89" gradientTransform="matrix(0,1.96105,-1.97781,0,254.507,78.763)" gradientUnits="userSpaceOnUse" xlink:href="#a"/></defs><g id="g1046" transform="translate(-332,-355.362)"><rect style="stroke:none;marker:none" id="rect976" width="560" height="164" x="332" y="355.362" stroke="#a6a6a6" stroke-width="4" color="#000" overflow="visible" rx="20" ry="20"/><text x="508.951" y="402.367" style="line-height:100%;-inkscape-font-specification:'DejaVu Sans';marker:none" id="text980" fill="#fff" color="#000" font-family="'DejaVu Sans'" font-size="12.395" font-weight="400" letter-spacing="0" overflow="visible" word-spacing="0"><tspan x="508.951" y="402.367" style="-inkscape-font-specification:'DejaVu Sans'" id="tspan978" font-size="34.125">GET IT ON</tspan></text><text style="line-height:100%;-inkscape-font-specification:'Rokkitt Bold';text-align:start;marker:none" id="text984" x="508.213" y="489.361" fill="#fff" color="#000" font-family="Rokkitt" font-size="29.709" font-weight="700" letter-spacing="0" overflow="visible" word-spacing="0"><tspan x="508.213" y="489.361" style="line-height:100%;-inkscape-font-specification:'Roboto Slab Bold';text-align:start" id="tspan982" font-family="'Roboto Slab'" font-size="95">F-Droid</tspan></text><g id="g994" fill-rule="evenodd"><path id="path986" fill="#8ab000" stroke="#769616" stroke-linecap="round" stroke-width="2.5" d="m 2.589,1006.862 4.25,5.5" transform="matrix(-2.63159,0,0,2.63157,483.158,-2270.475)"/><path style="line-height:normal;text-indent:0;text-align:start;text-decoration-line:none;text-decoration-style:solid;text-decoration-color:#000;text-transform:none;isolation:auto;mix-blend-mode:normal" id="path988" fill="#fff" fill-opacity=".298" d="m 476.286,375.862 c 1.193,0.031 2.004,0.497 2.58,1.18 -5.333,6.34 -6.232,7.347 -13.514,16.372 -2.683,3.472 -5.478,1.678 -2.795,-1.793 l 11.185,-14.474 c 0.602,-0.804 1.54,-1.258 2.544,-1.285 z" color="#000" font-family="sans-serif" font-weight="400" overflow="visible" white-space="normal"/><path style="line-height:normal;text-indent:0;text-align:start;text-decoration-line:none;text-decoration-style:solid;text-decoration-color:#000;text-transform:none;isolation:auto;mix-blend-mode:normal" id="path990" fill="#263238" fill-opacity=".2" d="m 478.89,377.075 c 0.325,0.39 1.476,2.118 0.058,4.096 l -11.184,14.473 c -2.683,3.471 -3.026,-1.611 -3.026,-1.611 0,0 9.828,-11.869 14.151,-16.958 z" color="#000" font-family="sans-serif" font-weight="400" overflow="visible" white-space="normal"/><path style="line-height:normal;text-indent:0;text-align:start;text-decoration-line:none;text-decoration-style:solid;text-decoration-color:#000;text-transform:none;isolation:auto;mix-blend-mode:normal" id="path992" fill="#8ab000" d="m 477.006,376.48 c 1.153,0 2.525,0.373 2.169,2.102 -0.273,1.32 -12.266,15.985 -12.266,15.985 -2.683,3.47 -6.562,1.78 -3.879,-1.691 l 11.143,-14.402 c 0.685,-0.763 1.602,-1.957 2.833,-1.994 z" color="#000" font-family="sans-serif" font-weight="400" overflow="visible" white-space="normal"/></g><g id="g1004" fill-rule="evenodd"><path id="path996" fill="#8ab000" stroke="#769616" stroke-linecap="round" stroke-width="2.5" d="m 2.589,1006.862 4.25,5.5" transform="matrix(2.63159,0,0,2.63157,356.842,-2270.475)"/><path d="m 363.714,375.862 c -1.193,0.031 -2.004,0.497 -2.58,1.18 5.333,6.34 6.232,7.347 13.514,16.372 2.683,3.472 5.478,1.678 2.795,-1.793 l -11.185,-14.474 c -0.602,-0.804 -1.54,-1.258 -2.544,-1.285 z" style="line-height:normal;text-indent:0;text-align:start;text-decoration-line:none;text-decoration-style:solid;text-decoration-color:#000;text-transform:none;isolation:auto;mix-blend-mode:normal" id="path998" fill="#fff" fill-opacity=".298" color="#000" font-family="sans-serif" font-weight="400" overflow="visible" white-space="normal"/><path d="m 361.11,377.075 c -0.325,0.39 -1.476,2.118 -0.058,4.096 l 11.184,14.473 c 2.683,3.471 3.026,-1.611 3.026,-1.611 0,0 -9.828,-11.869 -14.151,-16.958 z" style="line-height:normal;text-indent:0;text-align:start;text-decoration-line:none;text-decoration-style:solid;text-decoration-color:#000;text-transform:none;isolation:auto;mix-blend-mode:normal" id="path1000" fill="#263238" fill-opacity=".2" color="#000" font-family="sans-serif" font-weight="400" overflow="visible" white-space="normal"/><path d="m 362.995,376.48 c -1.153,0 -2.526,0.373 -2.17,2.102 0.273,1.32 12.266,15.985 12.266,15.985 2.683,3.47 6.562,1.78 3.879,-1.691 l -11.143,-14.402 c -0.685,-0.763 -1.602,-1.957 -2.832,-1.994 z" style="line-height:normal;text-indent:0;text-align:start;text-decoration-line:none;text-decoration-style:solid;text-decoration-color:#000;text-transform:none;isolation:auto;mix-blend-mode:normal" id="path1002" fill="#8ab000" color="#000" font-family="sans-serif" font-weight="400" overflow="visible" white-space="normal"/></g><g id="g1014" transform="matrix(2.63159,0,0,2.63157,467.369,-2270.475)"><rect id="rect1006" width="38" height="12.92" x="-37" y="1010.36" fill="#aeea00" rx="3" ry="3"/><rect id="rect1008" width="38" height="10" x="-37" y="1013.279" fill="#263238" fill-opacity=".2" rx="3" ry="3"/><rect id="rect1010" width="38" height="10" x="-37" y="1010.362" fill="#fff" fill-opacity=".298" rx="3" ry="3"/><rect id="rect1012" width="38" height="10.641" x="-37" y="1011.5" fill="#aeea00" rx="3" ry="2.456"/></g><g id="g1024" transform="matrix(2.63159,0,0,2.63157,356.842,-2270.745)"><rect id="rect1016" width="38" height="25.84" x="5" y="1024.522" fill="#1976d2" rx="3" ry="3"/><rect id="rect1018" width="38" height="13" x="5" y="1037.362" fill="#263238" fill-opacity=".2" rx="3" ry="3"/><rect id="rect1020" width="38" height="13" x="5" y="1024.442" fill="#fff" fill-opacity=".2" rx="3" ry="3"/><rect id="rect1022" width="38" height="23.56" x="5" y="1025.662" fill="#1976d2" rx="3" ry="2.718"/></g><g id="g1030" transform="matrix(2.63159,0,0,2.63157,356.842,396.264)"><path d="m 24,17.75 c -2.88,0 -5.32,1.985 -6.033,4.65 H 21.18 A 3.215,3.215 0 0 1 24,20.75 3.228,3.228 0 0 1 27.25,24 3.228,3.228 0 0 1 24,27.25 3.219,3.219 0 0 1 21.07,25.4 h -3.154 c 0.642,2.766 3.132,4.85 6.084,4.85 3.434,0 6.25,-2.816 6.25,-6.25 0,-3.434 -2.816,-6.25 -6.25,-6.25 z" style="line-height:normal;text-indent:0;text-align:start;text-decoration-line:none;text-decoration-style:solid;text-decoration-color:#000;text-transform:none;isolation:auto;mix-blend-mode:normal" id="path1026" fill="#0d47a1" color="#000" font-family="sans-serif" font-weight="400" overflow="visible" white-space="normal"/><circle id="circle1028" cx="24" cy="24" r="9.55" fill="none" stroke="#0d47a1" stroke-linecap="round" stroke-width="1.9"/></g><g id="g1036" transform="matrix(2.63159,0,0,2.63157,356.842,-2269.159)"><ellipse id="ellipse1032" cx="14.375" cy="1016.487" fill="#263238" fill-opacity=".2" rx="3.375" ry="3.875"/><circle id="circle1034" cx="14.375" cy="1016.987" r="3.375" fill="#fff"/></g><g id="g1042" transform="matrix(2.63159,0,0,2.63157,408.158,-2269.159)"><ellipse id="ellipse1038" cx="14.375" cy="1016.487" fill="#263238" fill-opacity=".2" rx="3.375" ry="3.875"/><circle id="circle1040" cx="14.375" cy="1016.987" r="3.375" fill="#fff"/></g><path d="m 282.715,299.835 a 3.29,3.29 0 0 0 -2.662,5.336 l 9.474,12.261 A 7.894,7.894 0 0 0 289,320.257 v 18.21 a 7.877,7.877 0 0 0 7.895,7.895 h 84.21 A 7.877,7.877 0 0 0 389,338.468 v -18.211 c 0,-0.999 -0.19,-1.949 -0.525,-2.826 l 9.472,-12.26 a 3.29,3.29 0 0 0 -2.433,-5.334 3.29,3.29 0 0 0 -2.772,1.31 l -9.013,11.666 a 7.91,7.91 0 0 0 -2.624,-0.45 h -84.21 c -0.922,0 -1.8,0.163 -2.622,0.45 l -9.015,-11.666 a 3.29,3.29 0 0 0 -2.543,-1.312 z m 14.18,49.527 A 7.877,7.877 0 0 0 289,357.257 v 52.21 a 7.877,7.877 0 0 0 7.895,7.895 h 84.21 A 7.877,7.877 0 0 0 389,409.468 v -52.211 a 7.877,7.877 0 0 0 -7.895,-7.895 z" style="line-height:normal;text-indent:0;text-align:start;text-decoration-line:none;text-decoration-style:solid;text-decoration-color:#000;text-transform:none;isolation:auto;mix-blend-mode:normal;fill:url(#b)" id="path1044" fill="url(#b)" fill-rule="evenodd" color="#000" font-family="sans-serif" font-weight="400" overflow="visible" transform="translate(81,76)" white-space="normal"/></g></svg>